<svg width="21" height="21" viewBox="0 0 21 21" fill="none" xmlns="http://www.w3.org/2000/svg">
<g id="akar-icons:twitter-fill" clip-path="url(#clip0_105_1634)">
<path id="Vector" d="M20.6831 4.31396C19.9873 4.62227 19.2399 4.83059 18.4541 4.92475C19.2649 4.43961 19.8714 3.67606 20.1606 2.77658C19.3989 3.22903 18.5652 3.54751 17.6958 3.71817C17.1112 3.09394 16.3368 2.68019 15.4929 2.54116C14.649 2.40213 13.7829 2.54559 13.0289 2.94928C12.2749 3.35296 11.6753 3.99429 11.3231 4.77368C10.9709 5.55307 10.886 6.42692 11.0813 7.25957C9.53785 7.18207 8.02792 6.78089 6.64952 6.08208C5.27112 5.38326 4.05507 4.40242 3.08028 3.20321C2.74697 3.77817 2.55532 4.44478 2.55532 5.15473C2.55495 5.79384 2.71233 6.42317 3.01351 6.98686C3.3147 7.55056 3.75036 8.0312 4.28185 8.38615C3.66546 8.36653 3.06267 8.19998 2.52365 7.90035V7.95035C2.52359 8.84673 2.83366 9.71553 3.40124 10.4093C3.96882 11.1031 4.75896 11.5792 5.63758 11.7567C5.06578 11.9115 4.46628 11.9343 3.88438 11.8234C4.13228 12.5947 4.61515 13.2691 5.26541 13.7523C5.91567 14.2355 6.70076 14.5033 7.51077 14.5182C6.13574 15.5976 4.43758 16.1831 2.68947 16.1805C2.37981 16.1806 2.07042 16.1625 1.76288 16.1264C3.5373 17.2673 5.60287 17.8728 7.71242 17.8704C14.8535 17.8704 18.7574 11.9559 18.7574 6.82627C18.7574 6.65961 18.7532 6.49129 18.7457 6.32464C19.5051 5.77549 20.1606 5.09548 20.6814 4.31646L20.6831 4.31396Z" fill="#522A80"/>
</g>
<defs>
<clipPath id="clip0_105_1634">
<rect width="19.9985" height="19.9985" fill="white" transform="translate(0.982056 0.199951)"/>
</clipPath>
</defs>
</svg>
