<svg width="17" height="17" viewBox="0 0 17 17" fill="none" xmlns="http://www.w3.org/2000/svg">
<path id="Vector" d="M3.27168 0.533173C2.33176 0.533173 1.55753 1.56547 1.55753 2.81871V7.98479C1.20898 8.40457 0.986145 9.00566 0.986145 9.67532V16.5319H3.84307V15.0082H14.128V16.5319H16.9849V9.67532C16.9849 9.00566 16.7621 8.40457 16.4135 7.98479V2.81871C16.4135 1.56547 15.6393 0.533173 14.6994 0.533173H3.27168ZM3.27168 2.05686H14.6994C15.0165 2.05686 15.2708 2.39589 15.2708 2.81871V7.38979H14.128V6.62794C14.128 5.3747 13.3538 4.3424 12.4138 4.3424H10.1283C9.69062 4.3424 9.28893 4.57096 8.98553 4.9374C8.67317 4.55689 8.26586 4.34481 7.84276 4.3424H5.55722C4.61729 4.3424 3.84307 5.3747 3.84307 6.62794V7.38979H2.7003V2.81871C2.7003 2.39589 2.95456 2.05686 3.27168 2.05686ZM5.55722 5.86609H7.84276C8.15988 5.86609 8.41414 6.20512 8.41414 6.62794V7.38979H4.98584V6.62794C4.98584 6.20512 5.2401 5.86609 5.55722 5.86609ZM10.1283 5.86609H12.4138C12.731 5.86609 12.9852 6.20512 12.9852 6.62794V7.38979H9.55691V6.62794C9.55691 6.20512 9.81118 5.86609 10.1283 5.86609ZM2.7003 8.91348H15.2708C15.5879 8.91348 15.8421 9.2525 15.8421 9.67532V15.0082H15.2708V13.4846H2.7003V15.0082H2.12891V9.67532C2.12891 9.2525 2.38318 8.91348 2.7003 8.91348Z" fill="#5F5E5E"/>
</svg>
