<svg width="21" height="21" viewBox="0 0 21 21" fill="none" xmlns="http://www.w3.org/2000/svg">
<g id="bi:instagram" clip-path="url(#clip0_105_1638)">
<path id="Vector" d="M10.9777 0.199707C8.26417 0.199707 7.92295 0.212206 6.85678 0.259702C5.79061 0.309699 5.06442 0.477186 4.42822 0.724666C3.76089 0.975671 3.15643 1.3694 2.65711 1.87833C2.14849 2.37791 1.75481 2.98229 1.50344 3.64944C1.25596 4.28439 1.08723 5.01183 1.03848 6.07425C0.990984 7.14292 0.978485 7.48289 0.978485 10.2002C0.978485 12.915 0.990984 13.2549 1.03848 14.3211C1.08848 15.386 1.25596 16.1122 1.50344 16.7484C1.75967 17.4059 2.1009 17.9633 2.65711 18.5195C3.21206 19.0757 3.76952 19.4182 4.42697 19.6732C5.06442 19.9207 5.78936 20.0894 6.85428 20.1382C7.9217 20.1857 8.26167 20.1982 10.9777 20.1982C13.6938 20.1982 14.0325 20.1857 15.0999 20.1382C16.1636 20.0882 16.8923 19.9207 17.5285 19.6732C18.1954 19.4221 18.7994 19.0283 19.2983 18.5195C19.8545 17.9633 20.1957 17.4059 20.452 16.7484C20.6982 16.1122 20.8669 15.386 20.9169 14.3211C20.9644 13.2549 20.9769 12.915 20.9769 10.1989C20.9769 7.48289 20.9644 7.14292 20.9169 6.0755C20.8669 5.01184 20.6982 4.28439 20.452 3.64944C20.2006 2.98227 19.807 2.37788 19.2983 1.87833C18.7991 1.36921 18.1946 0.975454 17.5272 0.724666C16.8898 0.477186 16.1623 0.308449 15.0986 0.259702C14.0312 0.212206 13.6925 0.199707 10.9752 0.199707H10.979H10.9777ZM10.0815 2.00207H10.979C13.6488 2.00207 13.965 2.01082 15.0186 2.05956C15.9936 2.10331 16.5235 2.26705 16.876 2.40329C17.3422 2.58452 17.6759 2.80201 18.0259 3.15198C18.3759 3.50195 18.5921 3.83443 18.7734 4.30189C18.9108 4.65311 19.0733 5.18307 19.1171 6.158C19.1658 7.21166 19.1758 7.52789 19.1758 10.1964C19.1758 12.865 19.1658 13.1825 19.1171 14.2361C19.0733 15.211 18.9096 15.7398 18.7734 16.0922C18.613 16.5264 18.3572 16.919 18.0247 17.2409C17.6747 17.5909 17.3422 17.8071 16.8748 17.9883C16.5248 18.1258 15.9948 18.2883 15.0186 18.3333C13.965 18.3808 13.6488 18.392 10.979 18.392C8.30917 18.392 7.99169 18.3808 6.93802 18.3333C5.9631 18.2883 5.43439 18.1258 5.08192 17.9883C4.64758 17.8282 4.25464 17.5728 3.93201 17.2409C3.59922 16.9185 3.34296 16.5255 3.18206 16.091C3.04583 15.7398 2.88209 15.2098 2.83834 14.2349C2.79084 13.1812 2.78085 12.865 2.78085 10.1939C2.78085 7.52414 2.79084 7.20916 2.83834 6.1555C2.88334 5.18057 3.04583 4.65061 3.18331 4.29814C3.36455 3.83193 3.58203 3.4982 3.93201 3.14823C4.28198 2.79826 4.61445 2.58202 5.08192 2.40079C5.43439 2.2633 5.9631 2.10081 6.93802 2.05581C7.86045 2.01332 8.21793 2.00082 10.0815 1.99957V2.00207ZM16.316 3.66194C16.1585 3.66194 16.0024 3.69298 15.8569 3.75328C15.7113 3.81358 15.579 3.90196 15.4676 4.01338C15.3562 4.12481 15.2678 4.25708 15.2075 4.40266C15.1472 4.54824 15.1161 4.70427 15.1161 4.86185C15.1161 5.01942 15.1472 5.17545 15.2075 5.32103C15.2678 5.46661 15.3562 5.59889 15.4676 5.71031C15.579 5.82173 15.7113 5.91012 15.8569 5.97042C16.0024 6.03072 16.1585 6.06175 16.316 6.06175C16.6343 6.06175 16.9395 5.93534 17.1645 5.71031C17.3895 5.48528 17.516 5.18008 17.516 4.86185C17.516 4.54361 17.3895 4.23841 17.1645 4.01338C16.9395 3.78836 16.6343 3.66194 16.316 3.66194ZM10.979 5.06433C10.2979 5.0537 9.62143 5.17868 8.98909 5.43198C8.35674 5.68528 7.7811 6.06184 7.29568 6.53975C6.81027 7.01765 6.42477 7.58734 6.16164 8.21566C5.8985 8.84398 5.76299 9.51837 5.76299 10.1996C5.76299 10.8807 5.8985 11.5551 6.16164 12.1835C6.42477 12.8118 6.81027 13.3815 7.29568 13.8594C7.7811 14.3373 8.35674 14.7138 8.98909 14.9671C9.62143 15.2204 10.2979 15.3454 10.979 15.3348C12.327 15.3138 13.6128 14.7635 14.5587 13.8027C15.5045 12.842 16.0347 11.5478 16.0347 10.1996C16.0347 8.85132 15.5045 7.55715 14.5587 6.5964C13.6128 5.63564 12.327 5.08536 10.979 5.06433ZM10.979 6.86544C11.8631 6.86544 12.7109 7.21665 13.3361 7.8418C13.9612 8.46695 14.3125 9.31484 14.3125 10.1989C14.3125 11.083 13.9612 11.9309 13.3361 12.5561C12.7109 13.1812 11.8631 13.5324 10.979 13.5324C10.0949 13.5324 9.24698 13.1812 8.62183 12.5561C7.99668 11.9309 7.64547 11.083 7.64547 10.1989C7.64547 9.31484 7.99668 8.46695 8.62183 7.8418C9.24698 7.21665 10.0949 6.86544 10.979 6.86544Z" fill="#522A80"/>
</g>
<defs>
<clipPath id="clip0_105_1638">
<rect width="19.9985" height="19.9985" fill="white" transform="translate(0.97876 0.199951)"/>
</clipPath>
</defs>
</svg>
