<svg width="59" height="59" viewBox="0 0 59 59" fill="none" xmlns="http://www.w3.org/2000/svg">
<g id="bx:check-shield">
<path id="Vector" d="M51.6782 17.1611C51.6381 16.755 51.4955 16.3658 51.2639 16.0298C51.0323 15.6938 50.7192 15.4221 50.354 15.24L31.0222 5.57411C30.6864 5.40612 30.3162 5.31865 29.9408 5.31865C29.5654 5.31865 29.1951 5.40612 28.8594 5.57411L9.52757 15.24C9.16335 15.4231 8.85123 15.6951 8.62016 16.031C8.3891 16.3668 8.24656 16.7555 8.20576 17.1611C8.17918 17.4197 5.88352 43.1794 28.9609 53.4422C29.2693 53.5813 29.6037 53.6533 29.942 53.6533C30.2803 53.6533 30.6147 53.5813 30.9231 53.4422C54.0005 43.1794 51.7048 17.4221 51.6782 17.1611ZM29.942 48.5681C13.5848 40.6614 12.8116 23.7871 12.9445 18.9372L29.942 10.4385L46.9274 18.9324C47.0168 23.7388 46.1348 40.7242 29.942 48.5681Z" fill="#58802A"/>
<path id="Vector_2" d="M27.5238 30.8999L21.9828 25.3589L18.5659 28.7758L27.5238 37.7337L41.3147 23.9429L37.8978 20.526L27.5238 30.8999Z" fill="#58802A"/>
</g>
</svg>
