<svg width="21" height="21" viewBox="0 0 21 21" fill="none" xmlns="http://www.w3.org/2000/svg">
<g id="clarity:email-line">
<path id="Vector" d="M18.7624 3.53271H3.20807C2.91341 3.53271 2.63082 3.64977 2.42246 3.85813C2.2141 4.06648 2.09705 4.34908 2.09705 4.64374V15.754C2.09705 16.0487 2.2141 16.3313 2.42246 16.5396C2.63082 16.748 2.91341 16.865 3.20807 16.865H18.7624C19.0571 16.865 19.3397 16.748 19.548 16.5396C19.7564 16.3313 19.8735 16.0487 19.8735 15.754V4.64374C19.8735 4.34908 19.7564 4.06648 19.548 3.85813C19.3397 3.64977 19.0571 3.53271 18.7624 3.53271ZM17.9069 15.754H4.13022L8.01881 11.7321L7.21887 10.9599L3.20807 15.1096V5.48812L10.1131 12.3598C10.3213 12.5667 10.6029 12.6829 10.8964 12.6829C11.1899 12.6829 11.4715 12.5667 11.6796 12.3598L18.7624 5.31591V15.0374L14.6739 10.9488L13.8906 11.7321L17.9069 15.754ZM3.93579 4.64374H17.8625L10.8964 11.571L3.93579 4.64374Z" fill="#522A80"/>
</g>
</svg>
