<svg width="59" height="59" viewBox="0 0 59 59" fill="none" xmlns="http://www.w3.org/2000/svg">
<g id="fluent:home-checkmark-16-regular">
<path id="Vector" d="M40.2532 25.352C40.4261 25.1846 40.5638 24.9844 40.6585 24.7632C40.7531 24.5419 40.8028 24.3041 40.8045 24.0634C40.8063 23.8228 40.7601 23.5842 40.6686 23.3616C40.5772 23.139 40.4423 22.9369 40.2719 22.7669C40.1015 22.597 39.899 22.4627 39.6762 22.3719C39.4533 22.2811 39.2146 22.2356 38.974 22.238C38.7333 22.2404 38.4956 22.2908 38.2746 22.386C38.0536 22.4813 37.8538 22.6197 37.6869 22.793L26.2835 34.1855L22.1296 30.0352C21.7883 29.7045 21.3307 29.5212 20.8555 29.5246C20.3803 29.5281 19.9254 29.718 19.5889 30.0536C19.2524 30.3892 19.0611 30.8435 19.0564 31.3187C19.0516 31.7939 19.2336 32.252 19.5633 32.5942L25.0004 38.0277C25.1687 38.1965 25.3687 38.3304 25.5889 38.4217C25.8091 38.5131 26.0452 38.5601 26.2835 38.5601C26.5219 38.5601 26.758 38.5131 26.9782 38.4217C27.1983 38.3304 27.3983 38.1965 27.5667 38.0277L40.2532 25.352ZM32.3984 5.10073C31.7254 4.46446 30.8344 4.10994 29.9083 4.10994C28.9821 4.10994 28.0911 4.46446 27.4181 5.10073L9.85994 21.6838C8.77252 22.7096 8.15994 24.1378 8.15994 25.6348V45.7955C8.15994 47.2375 8.73278 48.6204 9.75243 49.6401C10.7721 50.6597 12.155 51.2325 13.597 51.2325H46.2195C47.6609 51.2325 49.0433 50.6602 50.0628 49.6413C51.0824 48.6225 51.6556 47.2405 51.6566 45.7991V25.6311C51.6566 24.1378 51.0404 22.7096 49.953 21.6838L32.4021 5.10073H32.3984ZM29.9083 7.7359L47.4664 24.319C47.6451 24.4884 47.7874 24.6924 47.8846 24.9187C47.9818 25.1449 48.0319 25.3885 48.0319 25.6348V45.8027C48.0319 46.2834 47.8409 46.7444 47.501 47.0842C47.1611 47.4241 46.7002 47.6151 46.2195 47.6151H13.597C13.1164 47.6151 12.6554 47.4241 12.3155 47.0842C11.9756 46.7444 11.7847 46.2834 11.7847 45.8027V25.6311C11.7846 25.3849 11.8347 25.1413 11.9319 24.915C12.0291 24.6888 12.1714 24.4848 12.3501 24.3154L29.9083 7.7359Z" fill="#2A807D"/>
</g>
</svg>
