<svg width="87" height="87" viewBox="0 0 87 87" fill="none" xmlns="http://www.w3.org/2000/svg">
<g id="Group 376">
<circle id="Ellipse 3" cx="39.8917" cy="39.5409" r="23.9981" fill="#8C71AA"/>
<circle id="Ellipse 1" cx="39.8913" cy="39.5385" r="21.9983" fill="#6F4D95"/>
<g id="Ellipse 2" opacity="0.4" filter="url(#filter0_d_105_1730)">
<circle cx="39.8922" cy="39.5395" r="17.9986" fill="#402164"/>
</g>
<path id="Vector" d="M36.6396 47.8771C36.4496 47.8771 36.2596 47.8071 36.1096 47.6572C35.8197 47.3672 35.8197 46.8872 36.1096 46.5972L42.6291 40.0777C43.1091 39.5978 43.1091 38.8178 42.6291 38.3379L36.1096 31.8184C35.8197 31.5284 35.8197 31.0484 36.1096 30.7585C36.3996 30.4685 36.8796 30.4685 37.1696 30.7585L43.689 37.278C44.199 37.7879 44.489 38.4779 44.489 39.2078C44.489 39.9378 44.209 40.6277 43.689 41.1377L37.1696 47.6572C37.0196 47.7971 36.8296 47.8771 36.6396 47.8771Z" fill="white"/>
</g>
<defs>
<filter id="filter0_d_105_1730" x="0.895238" y="0.542516" width="85.9933" height="85.9934" filterUnits="userSpaceOnUse" color-interpolation-filters="sRGB">
<feFlood flood-opacity="0" result="BackgroundImageFix"/>
<feColorMatrix in="SourceAlpha" type="matrix" values="0 0 0 0 0 0 0 0 0 0 0 0 0 0 0 0 0 0 127 0" result="hardAlpha"/>
<feOffset dx="3.99969" dy="3.99969"/>
<feGaussianBlur stdDeviation="12.499"/>
<feComposite in2="hardAlpha" operator="out"/>
<feColorMatrix type="matrix" values="0 0 0 0 0 0 0 0 0 0 0 0 0 0 0 0 0 0 0.08 0"/>
<feBlend mode="normal" in2="BackgroundImageFix" result="effect1_dropShadow_105_1730"/>
<feBlend mode="normal" in="SourceGraphic" in2="effect1_dropShadow_105_1730" result="shape"/>
</filter>
</defs>
</svg>
