<svg width="57" height="57" viewBox="0 0 57 57" fill="none" xmlns="http://www.w3.org/2000/svg">
<g id="ion:pricetags-outline" clip-path="url(#clip0_105_1608)">
<path id="Vector" d="M45.0814 3.98119H31.637C31.2191 3.98088 30.818 4.14603 30.5215 4.44053L3.64354 31.3119C3.05516 31.9032 2.72485 32.7034 2.72485 33.5375C2.72485 34.3716 3.05516 35.1718 3.64354 35.7631L16.4394 48.559C17.0309 49.1474 17.8313 49.4778 18.6656 49.4778C19.4999 49.4778 20.3003 49.1474 20.8917 48.559L47.762 21.6986C48.0565 21.402 48.2217 21.001 48.2213 20.583V7.13095C48.2234 6.71758 48.1436 6.30789 47.9866 5.92548C47.8297 5.54306 47.5986 5.19547 47.3068 4.90271C47.015 4.60996 46.6681 4.37782 46.2862 4.21967C45.9042 4.06151 45.4948 3.98046 45.0814 3.98119V3.98119Z" stroke="#802A2D" stroke-width="3.49973" stroke-linecap="round" stroke-linejoin="round"/>
<path id="Vector_2" d="M39.4712 16.2322C38.779 16.2322 38.1023 16.0269 37.5268 15.6423C36.9513 15.2578 36.5027 14.7112 36.2378 14.0717C35.973 13.4322 35.9036 12.7285 36.0387 12.0497C36.1737 11.3708 36.507 10.7472 36.9965 10.2577C37.4859 9.7683 38.1095 9.43498 38.7884 9.29994C39.4673 9.16491 40.171 9.23421 40.8105 9.4991C41.4499 9.76399 41.9965 10.2126 42.3811 10.7881C42.7656 11.3636 42.9709 12.0402 42.9709 12.7324C42.9709 13.6606 42.6022 14.5508 41.9458 15.2071C41.2895 15.8634 40.3994 16.2322 39.4712 16.2322Z" fill="#802A2D"/>
<path id="Vector_3" d="M26.129 52.9793L54.783 24.3253C54.9255 24.1816 55.0376 24.0107 55.1128 23.8229C55.1879 23.635 55.2246 23.4339 55.2205 23.2316V9.2327" stroke="#802A2D" stroke-width="3.49973" stroke-linecap="round" stroke-linejoin="round"/>
</g>
<defs>
<clipPath id="clip0_105_1608">
<rect width="55.9957" height="55.9957" fill="white" transform="translate(0.974548 0.482574)"/>
</clipPath>
</defs>
</svg>
