<svg width="25" height="25" viewBox="0 0 25 25" fill="none" xmlns="http://www.w3.org/2000/svg">
<g id="fi-rs-marker" clip-path="url(#clip0_105_1665)">
<g id="_01_align_center">
<path id="Vector" d="M12.9437 24.5431L12.2467 23.9457C11.2858 23.1411 2.89545 15.8949 2.89545 10.5945C2.89545 5.045 7.39421 0.546234 12.9437 0.546234C18.4932 0.546234 22.9919 5.045 22.9919 10.5945C22.9919 15.8949 14.6016 23.1411 13.6447 23.9496L12.9437 24.5431ZM12.9437 2.71896C8.59623 2.72388 5.07314 6.24697 5.06822 10.5944C5.06822 13.9243 10.2303 19.2436 12.9437 21.6782C15.6572 19.2426 20.8192 13.9202 20.8192 10.5944C20.8142 6.24697 17.2912 2.72393 12.9437 2.71896Z" fill="#522A80"/>
<path id="Vector_2" d="M12.944 14.5778C10.744 14.5778 8.96063 12.7944 8.96063 10.5945C8.96063 8.39452 10.744 6.61111 12.944 6.61111C15.1439 6.61111 16.9273 8.39452 16.9273 10.5945C16.9273 12.7944 15.144 14.5778 12.944 14.5778ZM12.944 8.60274C11.844 8.60274 10.9523 9.49444 10.9523 10.5944C10.9523 11.6944 11.844 12.5861 12.944 12.5861C14.0439 12.5861 14.9356 11.6944 14.9356 10.5944C14.9356 9.49444 14.044 8.60274 12.944 8.60274Z" fill="#522A80"/>
</g>
</g>
<defs>
<clipPath id="clip0_105_1665">
<rect width="23.9981" height="23.9981" fill="white" transform="translate(0.986572 0.53717)"/>
</clipPath>
</defs>
</svg>
