<svg width="17" height="17" viewBox="0 0 17 17" fill="none" xmlns="http://www.w3.org/2000/svg">
<path id="Vector" d="M15.9098 9.35296H3.11083V3.3683C3.11021 3.14292 3.15441 2.91966 3.24088 2.71143C3.32734 2.50321 3.45435 2.31416 3.61456 2.15524L3.62789 2.14194C3.87896 1.89186 4.2013 1.7252 4.55089 1.66473C4.90048 1.60426 5.26025 1.65292 5.58107 1.80407C5.27809 2.30658 5.15215 2.89569 5.22328 3.47778C5.29441 4.05986 5.55852 4.60154 5.97364 5.01674L6.33865 5.38084L5.6668 6.05106L6.42094 6.80333L7.09279 6.13315L10.8155 2.41976L11.4873 1.74958L10.7331 0.997271L10.0613 1.66745L9.69626 1.30335C9.25924 0.868644 8.68318 0.600674 8.06844 0.546138C7.4537 0.491603 6.83927 0.65396 6.33221 1.00492C5.79753 0.668086 5.16389 0.522673 4.5354 0.592567C3.90691 0.662461 3.32094 0.943506 2.87375 1.38953L2.86042 1.40283C2.60085 1.66034 2.39506 1.96664 2.25497 2.30401C2.11487 2.64139 2.04325 3.00313 2.04425 3.3683V9.35296H0.977661V10.4169H2.04425V11.4376C2.04422 11.5234 2.05809 11.6086 2.08531 11.6899L3.0775 14.659C3.13045 14.818 3.23226 14.9562 3.36848 15.0542C3.50469 15.1521 3.66839 15.2048 3.83631 15.2046H4.26627L3.87744 16.5346H4.98845L5.37732 15.2046H12.3135L12.7134 16.5346H13.8267L13.4267 15.2046H14.1176C14.2856 15.2048 14.4493 15.1522 14.5856 15.0542C14.7218 14.9563 14.8236 14.818 14.8766 14.659L15.8687 11.6899C15.8959 11.6086 15.9098 11.5234 15.9098 11.4376V10.4169H16.9764V9.35296H15.9098ZM6.72788 2.05566C7.02173 1.76318 7.41988 1.59892 7.83498 1.59892C8.25009 1.59892 8.64824 1.76318 8.94208 2.05566L9.30702 2.41976L7.09289 4.6284L6.72788 4.26437C6.4347 3.97124 6.27004 3.57408 6.27004 3.16001C6.27004 2.74594 6.4347 2.34878 6.72788 2.05566ZM14.8433 11.3944L13.9256 14.1407H4.02849L3.11083 11.3944V10.4169H14.8433V11.3944Z" fill="#5F5E5E"/>
</svg>
