<svg width="9" height="18" viewBox="0 0 9 18" fill="none" xmlns="http://www.w3.org/2000/svg">
<path id="Vector" d="M1.01319 0.0761963C0.823204 0.0761963 0.633219 0.14619 0.48323 0.296179C0.193253 0.586156 0.193253 1.06612 0.48323 1.3561L7.00273 7.87559C7.48269 8.35555 7.48269 9.13549 7.00273 9.61546L0.48323 16.135C0.193253 16.4249 0.193253 16.9049 0.48323 17.1949C0.773208 17.4848 1.25317 17.4848 1.54315 17.1949L8.06264 10.6754C8.5726 10.1654 8.86258 9.47547 8.86258 8.74552C8.86258 8.01558 8.5826 7.32563 8.06264 6.81567L1.54315 0.296179C1.39316 0.156189 1.20317 0.0761963 1.01319 0.0761963Z" fill="#1A1919"/>
</svg>
