<svg width="19" height="10" viewBox="0 0 19 10" fill="none" xmlns="http://www.w3.org/2000/svg">
<path id="Vector" d="M18.2328 1.60877C18.2328 1.41878 18.1628 1.2288 18.0128 1.07881C17.7228 0.788834 17.2428 0.788834 16.9529 1.07881L10.4334 7.59831C9.95341 8.07827 9.17347 8.07827 8.6935 7.59831L2.17401 1.07881C1.88403 0.788834 1.40407 0.788834 1.11409 1.07881C0.824112 1.36879 0.824112 1.84875 1.11409 2.13873L7.63358 8.65823C8.14355 9.16819 8.83349 9.45816 9.56344 9.45816C10.2934 9.45816 10.9833 9.17819 11.4933 8.65823L18.0128 2.13873C18.1528 1.98874 18.2328 1.79876 18.2328 1.60877Z" fill="#1A1919"/>
</svg>
