<svg width="21" height="21" viewBox="0 0 21 21" fill="none" xmlns="http://www.w3.org/2000/svg">
<g id="fluent:slide-size-20-regular">
<path id="Vector" d="M2.96622 7.28473C2.96622 6.55544 3.25593 5.85602 3.77161 5.34034C4.2873 4.82465 4.98672 4.53494 5.716 4.53494H16.2152C16.9445 4.53494 17.6439 4.82465 18.1596 5.34034C18.6753 5.85602 18.965 6.55544 18.965 7.28473V13.7842C18.965 14.5135 18.6753 15.2129 18.1596 15.7286C17.6439 16.2443 16.9445 16.534 16.2152 16.534H5.716C4.98672 16.534 4.2873 16.2443 3.77161 15.7286C3.25593 15.2129 2.96622 14.5135 2.96622 13.7842V7.28473ZM5.716 5.53487C5.25191 5.53487 4.80683 5.71923 4.47866 6.04739C4.1505 6.37555 3.96614 6.82064 3.96614 7.28473V13.7842C3.96614 14.7502 4.75008 15.5341 5.716 15.5341H16.2152C16.6793 15.5341 17.1244 15.3497 17.4525 15.0216C17.7807 14.6934 17.9651 14.2483 17.9651 13.7842V7.28473C17.9651 6.82064 17.7807 6.37555 17.4525 6.04739C17.1244 5.71923 16.6793 5.53487 16.2152 5.53487H5.716ZM11.9655 7.03475C11.9655 6.90215 12.0182 6.77498 12.112 6.68122C12.2057 6.58746 12.3329 6.53479 12.4655 6.53479H14.4653C14.5979 6.53479 14.7251 6.58746 14.8189 6.68122C14.9126 6.77498 14.9653 6.90215 14.9653 7.03475V9.0346C14.9653 9.16719 14.9126 9.29436 14.8189 9.38812C14.7251 9.48188 14.5979 9.53456 14.4653 9.53456C14.3327 9.53456 14.2056 9.48188 14.1118 9.38812C14.018 9.29436 13.9654 9.16719 13.9654 9.0346V8.24166L12.3195 9.88853C12.2256 9.98241 12.0983 10.0351 11.9655 10.0351C11.8328 10.0351 11.7054 9.98241 11.6115 9.88853C11.5177 9.79465 11.4649 9.66732 11.4649 9.53456C11.4649 9.40179 11.5177 9.27446 11.6115 9.18058L13.2584 7.53471H12.4655C12.3329 7.53471 12.2057 7.48204 12.112 7.38828C12.0182 7.29451 11.9655 7.16735 11.9655 7.03475ZM9.6117 11.1804C9.70558 11.0865 9.83291 11.0338 9.96568 11.0338C10.0984 11.0338 10.2258 11.0865 10.3196 11.1804C10.4135 11.2743 10.4663 11.4016 10.4663 11.5344C10.4663 11.6672 10.4135 11.7945 10.3196 11.8884L8.67278 13.5342H9.46572C9.59831 13.5342 9.72548 13.5869 9.81924 13.6807C9.913 13.7744 9.96568 13.9016 9.96568 14.0342C9.96568 14.1668 9.913 14.294 9.81924 14.3877C9.72548 14.4815 9.59831 14.5342 9.46572 14.5342H7.46587C7.33327 14.5342 7.2061 14.4815 7.11234 14.3877C7.01858 14.294 6.96591 14.1668 6.96591 14.0342V12.0344C6.96591 11.9018 7.01858 11.7746 7.11234 11.6808C7.2061 11.5871 7.33327 11.5344 7.46587 11.5344C7.59847 11.5344 7.72563 11.5871 7.8194 11.6808C7.91316 11.7746 7.96583 11.9018 7.96583 12.0344V12.8273L9.6117 11.1804Z" fill="#5F5E5E"/>
</g>
</svg>
